grf
version=1
nRows=9
nColumns=37
inDegrees=no
endheader
time	ground_force_1_vx	ground_force_1_vy	ground_force_1_vz	ground_force_1_px	ground_force_1_py	ground_force_1_pz	ground_moment_1_mx	ground_moment_1_my	ground_moment_1_mz	ground_force_2_vx	ground_force_2_vy	ground_force_2_vz	ground_force_2_px	ground_force_2_py	ground_force_2_pz	ground_moment_2_mx	ground_moment_2_my	ground_moment_2_mz	ground_force_3_vx	ground_force_3_vy	ground_force_3_vz	ground_force_3_px	ground_force_3_py	ground_force_3_pz	ground_moment_3_mx	ground_moment_3_my	ground_moment_3_mz	ground_force_4_vx	ground_force_4_vy	ground_force_4_vz	ground_force_4_px	ground_force_4_py	ground_force_4_pz	ground_moment_4_mx	ground_moment_4_my	ground_moment_4_mz
      3.18000000	      0.00000000	     -0.00000000	      0.00000000	      0.00000000	      0.00000000	      0.00000000	      0.00000000	      0.00000000	      0.00000000	     -3.31324458	     59.49975967	   -375.01980591	   -304.99756906	  -1127.58738304	      0.00000000	      0.00000000	      0.00000000	   3579.10617160	     -3.09093927	    -62.59526416	   -449.56015015	   -321.29296179	   -681.32614124	      0.00000000	      0.00000000	     -0.00000000	  -5394.66824006	      0.00000000	     -0.00000000	      0.00000000	      0.00000000	      0.00000000	      0.00000000	      0.00000000	      0.00000000	      0.00000000
      3.19000000	      0.00000000	     -0.00000000	      0.00000000	      0.00000000	      0.00000000	      0.00000000	      0.00000000	      0.00000000	      0.00000000	     -3.91287971	     59.23460388	   -376.58786011	   -304.21575116	  -1128.63281794	      0.00000000	      0.00000000	      0.00000000	   3488.45092946	     -4.03114680	    -63.16234172	   -450.85229492	   -321.73391944	   -681.78021038	      0.00000000	      0.00000000	     -0.00000000	  -5279.48036809	      0.00000000	     -0.00000000	      0.00000000	      0.00000000	      0.00000000	      0.00000000	      0.00000000	      0.00000000	      0.00000000
      3.20000000	      0.00000000	     -0.00000000	      0.00000000	      0.00000000	      0.00000000	      0.00000000	      0.00000000	      0.00000000	      0.00000000	     -4.16825247	     59.16731644	   -377.25671387	   -303.91262348	  -1129.06172814	      0.00000000	      0.00000000	      0.00000000	   3591.54237737	     -3.94026095	    -63.49102367	   -452.64605713	   -321.41112759	   -681.50821432	      0.00000000	      0.00000000	     -0.00000000	  -5462.06514677	      0.00000000	     -0.00000000	      0.00000000	      0.00000000	      0.00000000	      0.00000000	      0.00000000	      0.00000000	      0.00000000
      3.21000000	      0.00000000	     -0.00000000	      0.00000000	      0.00000000	      0.00000000	      0.00000000	      0.00000000	      0.00000000	      0.00000000	     -4.23307037	     58.83831406	   -376.08813477	   -304.09381080	  -1127.55212706	      0.00000000	      0.00000000	      0.00000000	   3583.92813570	     -4.63749679	    -63.64046056	   -454.54711914	   -321.66487706	   -681.76767122	      0.00000000	      0.00000000	     -0.00000000	  -5455.28271944	      0.00000000	     -0.00000000	      0.00000000	      0.00000000	      0.00000000	      0.00000000	      0.00000000	      0.00000000	      0.00000000
      3.22000000	      0.00000000	     -0.00000000	      0.00000000	      0.00000000	      0.00000000	      0.00000000	      0.00000000	      0.00000000	      0.00000000	     -4.34694338	     58.82606506	   -375.47854614	   -303.67048756	  -1128.06482605	      0.00000000	      0.00000000	      0.00000000	   3820.20534356	     -5.61653270	    -64.26177166	   -454.94458008	   -321.49152016	   -681.51100913	      0.00000000	      0.00000000	     -0.00000000	  -5470.30230913	      0.00000000	     -0.00000000	      0.00000000	      0.00000000	      0.00000000	      0.00000000	      0.00000000	      0.00000000	      0.00000000
      3.23000000	      0.00000000	     -0.00000000	      0.00000000	      0.00000000	      0.00000000	      0.00000000	      0.00000000	      0.00000000	      0.00000000	     -5.13350725	     58.74905396	   -374.51477051	   -303.78341246	  -1127.47923469	      0.00000000	      0.00000000	      0.00000000	   3588.47389379	     -5.53647696	    -63.96906232	   -455.18338013	   -321.54047810	   -681.99971224	      0.00000000	      0.00000000	     -0.00000000	  -5601.49583940	      0.00000000	     -0.00000000	      0.00000000	      0.00000000	      0.00000000	      0.00000000	      0.00000000	      0.00000000	      0.00000000
      3.24000000	      0.00000000	     -0.00000000	      0.00000000	      0.00000000	      0.00000000	      0.00000000	      0.00000000	      0.00000000	      0.00000000	     -5.52629519	     58.85492706	   -375.87896729	   -304.34834432	  -1127.70101833	      0.00000000	      0.00000000	      0.00000000	   3712.64563487	     -6.01606309	    -64.03741402	   -454.96109009	   -321.88236243	   -681.54052316	      0.00000000	      0.00000000	     -0.00000000	  -5576.04674622	      0.00000000	     -0.00000000	      0.00000000	      0.00000000	      0.00000000	      0.00000000	      0.00000000	      0.00000000	      0.00000000
      3.25000000	      0.00000000	     -0.00000000	      0.00000000	      0.00000000	      0.00000000	      0.00000000	      0.00000000	      0.00000000	      0.00000000	     -5.89988565	     58.63056564	   -376.39486694	   -303.94249547	  -1128.40962389	      0.00000000	      0.00000000	      0.00000000	   3573.69473053	     -6.41118226	    -63.83268682	   -454.68984985	   -321.46616359	   -681.46101841	      0.00000000	      0.00000000	     -0.00000000	  -5495.95451279	      0.00000000	     -0.00000000	      0.00000000	      0.00000000	      0.00000000	      0.00000000	      0.00000000	      0.00000000	      0.00000000
      3.26000000	      0.00000000	     -0.00000000	      0.00000000	      0.00000000	      0.00000000	      0.00000000	      0.00000000	      0.00000000	      0.00000000	     -6.32201624	     58.53483963	   -374.22903442	   -305.30407787	  -1127.19767463	      0.00000000	      0.00000000	      0.00000000	   3487.07920537	     -6.51685028	    -63.25021305	   -453.80313110	   -322.25566153	   -681.84872821	      0.00000000	      0.00000000	     -0.00000000	  -5361.93987237	      0.00000000	     -0.00000000	      0.00000000	      0.00000000	      0.00000000	      0.00000000	      0.00000000	      0.00000000	      0.00000000
